<?xml version="1.0" standalone="no"?>
<!DOCTYPE svg PUBLIC "-//W3C//DTD SVG 20010904//EN"
 "http://www.w3.org/TR/2001/REC-SVG-20010904/DTD/svg10.dtd">
<svg version="1.0" xmlns="http://www.w3.org/2000/svg"
 width="493.000000pt" height="493.000000pt" viewBox="0 0 493.000000 493.000000"
 preserveAspectRatio="xMidYMid meet">
<metadata>
Created by potrace 1.14, written by Peter Selinger 2001-2017
</metadata>
<g transform="translate(0.000000,493.000000) scale(0.100000,-0.100000)"
fill="#000000" stroke="none">
<path d="M2385 4923 c-108 -20 -165 -45 -325 -141 -69 -41 -138 -83 -155 -92
-16 -9 -147 -87 -290 -172 -143 -85 -406 -242 -585 -348 -518 -307 -519 -308
-596 -412 -42 -58 -96 -173 -110 -238 -4 -19 -9 -486 -10 -1037 -2 -1119 -4
-1076 67 -1222 67 -137 137 -198 414 -362 213 -126 804 -478 850 -506 11 -7
27 -15 35 -19 8 -4 26 -15 40 -24 14 -10 45 -28 70 -42 25 -14 121 -71 215
-127 93 -57 195 -114 225 -128 113 -52 276 -63 400 -27 73 21 61 15 490 269
1283 761 1241 735 1316 810 53 53 81 91 113 155 73 149 71 120 71 1213 0 1088
2 1047 -71 1197 -54 110 -146 203 -278 280 -52 30 -110 65 -130 77 -20 13 -43
26 -51 30 -8 4 -31 17 -50 29 -19 12 -201 121 -405 241 -203 121 -491 292
-640 381 -268 159 -310 181 -393 202 -44 11 -182 20 -217 13z m202 -126 c63
-17 100 -36 279 -142 65 -38 123 -72 129 -74 5 -2 12 -7 15 -11 3 -4 30 -20
60 -37 82 -44 104 -57 110 -64 14 -15 78 -48 83 -42 4 3 7 1 7 -6 0 -11 47
-36 63 -33 4 1 7 -2 7 -7 0 -5 37 -30 83 -56 45 -27 98 -58 117 -70 19 -13
159 -96 310 -185 504 -299 502 -297 558 -384 15 -22 29 -43 32 -46 3 -3 15
-34 28 -70 l23 -65 -28 25 c-46 41 -70 50 -130 50 -43 -1 -72 -8 -113 -29 -69
-34 -404 -243 -408 -253 -2 -4 -8 -8 -13 -8 -12 0 -223 -132 -227 -142 -2 -5
-8 -8 -12 -8 -19 0 -119 -67 -112 -75 4 -5 2 -5 -5 -1 -7 4 -21 -1 -31 -11
-10 -10 -24 -19 -31 -21 -20 -4 -61 -34 -61 -44 0 -5 -3 -7 -8 -5 -4 3 -81
-41 -172 -98 -91 -57 -208 -129 -260 -161 -52 -32 -96 -61 -98 -66 -2 -4 -8
-8 -14 -8 -21 0 -178 -113 -231 -166 -49 -49 -84 -102 -86 -127 0 -4 -9 -22
-18 -40 -17 -30 -18 -94 -18 -1032 l0 -1000 22 -48 c13 -27 37 -62 54 -78 l31
-29 -53 -1 c-90 -3 -110 0 -161 20 -16 6 -28 8 -28 5 0 -2 -6 0 -12 6 -25 20
-228 138 -228 131 0 -3 -4 -1 -8 5 -7 10 -259 164 -270 164 -3 0 -13 6 -21 14
-9 7 -36 25 -61 38 -25 14 -61 35 -80 46 -19 12 -66 40 -105 62 -38 23 -101
60 -140 84 -198 121 -281 169 -292 169 -7 0 -13 4 -13 9 0 5 -8 12 -18 16 -23
9 -335 197 -392 235 -25 17 -51 39 -58 49 -7 10 -18 15 -24 12 -6 -4 -8 -3 -5
3 3 5 -6 23 -21 40 -31 33 -74 124 -92 193 -18 66 -17 2007 0 2082 26 111 106
229 195 289 28 19 51 37 53 42 2 4 8 7 13 7 8 0 280 158 304 177 6 4 30 19 55
32 25 13 50 29 55 35 6 6 16 12 24 14 8 2 27 12 42 23 15 10 30 19 33 19 4 0
25 12 49 27 23 14 58 36 77 48 19 12 125 75 235 140 110 65 203 123 207 129 4
6 8 8 8 4 0 -4 73 37 163 91 357 214 388 228 518 224 31 -1 83 -8 116 -16z
m523 -2653 c0 -69 2 -75 18 -69 9 4 43 9 74 12 72 7 75 1 50 -98 l-18 -74 -56
-1 c-70 -2 -139 -35 -179 -86 -36 -45 -47 -109 -25 -144 16 -24 34 -29 141
-39 80 -8 115 -22 144 -58 88 -107 40 -353 -96 -491 l-48 -50 3 -78 3 -77 -48
-31 c-68 -43 -78 -38 -80 39 -1 35 -4 65 -7 68 -2 3 -21 0 -40 -7 -49 -16
-129 -10 -137 9 -6 16 24 147 36 159 4 4 37 7 73 8 130 1 231 93 232 210 0 52
-37 94 -84 95 -159 3 -211 24 -242 98 -46 109 6 294 115 413 51 56 51 56 51
124 0 80 4 87 56 119 61 38 64 35 64 -51z m821 -837 c2 -47 -1 -61 -18 -77
-12 -10 -23 -17 -26 -14 -2 2 -10 -2 -17 -11 -7 -8 -19 -15 -26 -15 -8 0 -14
-4 -14 -10 0 -5 -7 -10 -15 -10 -8 0 -15 -4 -15 -9 0 -5 -11 -12 -25 -15 -14
-4 -25 -11 -25 -17 0 -6 -4 -8 -9 -5 -5 3 -12 -1 -15 -10 -3 -8 -10 -13 -14
-10 -5 3 -19 -4 -30 -15 -12 -11 -22 -16 -22 -12 0 4 -7 -2 -16 -13 -8 -10
-12 -12 -8 -4 4 8 -4 5 -18 -8 -13 -12 -28 -19 -31 -15 -4 3 -7 1 -7 -5 0 -7
-6 -12 -14 -12 -8 0 -16 -4 -18 -9 -1 -5 -12 -11 -23 -13 -18 -3 -20 3 -23 64
l-3 68 48 30 c26 16 53 34 59 39 7 5 15 7 18 4 3 -4 6 -1 6 6 0 7 4 10 9 7 5
-3 12 1 15 10 3 8 10 13 15 10 5 -3 14 1 21 9 7 8 16 15 21 15 4 0 37 18 71
40 35 22 68 40 74 40 7 0 15 7 18 16 3 8 10 13 15 9 5 -3 13 0 16 6 13 20 24
-6 26 -64z"/>
</g>
</svg>
